<?xml version="1.0" encoding="utf-8"?>
<!-- Generator: Adobe Illustrator 24.3.0, SVG Export Plug-In . SVG Version: 6.00 Build 0)  -->
<svg version="1.1" id="Layer_1" xmlns="http://www.w3.org/2000/svg" xmlns:xlink="http://www.w3.org/1999/xlink" x="0px" y="0px"
	 viewBox="0 0 255.01 124.66" style="enable-background:new 0 0 255.01 124.66;" xml:space="preserve">
<style type="text/css">
	.st0{fill:url(#SVGID_1_);stroke:#000000;stroke-width:4;stroke-miterlimit:10;}
	.st1{fill:none;stroke:#000000;stroke-width:3;stroke-miterlimit:10;}
	.st2{fill:#FFFFFF;stroke:#939393;stroke-width:3;stroke-miterlimit:10;}
	.st3{fill:#FFFFFF;stroke:#000000;stroke-width:3;stroke-miterlimit:10;}
	.st4{fill:none;stroke:#000000;stroke-miterlimit:10;}
	.st5{fill:none;stroke:#000000;stroke-miterlimit:10;stroke-dasharray:3.0509,1.017;}
	.st6{font-family:'Aller-Bold';}
	.st7{font-size:61.5569px;}
	.st8{fill:#939393;}
</style>
<linearGradient id="SVGID_1_" gradientUnits="userSpaceOnUse" x1="121.6367" y1="9.0034" x2="121.6367" y2="119.5568">
	<stop  offset="0" style="stop-color:#FFFFFF"/>
	<stop  offset="0.3781" style="stop-color:#FFEEE3"/>
	<stop  offset="0.9384" style="stop-color:#939393"/>
</linearGradient>
<path class="st0" d="M224.88,68.34c7.84,27.18-46.22,51.22-103.24,51.22S10.56,95.52,18.4,68.34C31.3,23.57,76.47,9,121.64,9
	C166.8,9,211.97,23.57,224.88,68.34z"/>
<path class="st1" d="M70.02,16.82c0,0,19.39-4.96,51.62-4.96c32.48,0,51.62,4.96,51.62,4.96"/>
<polygon class="st2" points="183.54,33.1 182.01,42.42 189.47,52.58 200.07,44.79 192.61,34.63 "/>
<polygon class="st3" points="183.54,31.55 182.01,40.87 189.47,51.03 200.07,43.23 192.61,33.08 "/>
<circle cx="186.77" cy="35.83" r="1.24"/>
<g>
	<g>
		<path class="st4" d="M183.54,31.55c0,0-0.16-0.53-0.51-1.4"/>
		<path class="st5" d="M182.63,29.21c-0.68-1.52-1.76-3.6-3.33-5.7c-2.11-2.81-5.91-6.39-10.51-7.65"/>
		<path class="st4" d="M168.28,15.74c-0.48-0.11-0.98-0.2-1.48-0.26"/>
	</g>
</g>
<g>
	<path d="M28.29,74.98c-2.53,0.55-4.91,0.88-7.12,1c-2.21,0.12-4.31-0.09-6.27-0.63c-1.97-0.54-3.85-1.51-5.64-2.89
		c-1.79-1.38-3.5-3.33-5.13-5.84c-1.98-3.04-3.21-6.07-3.67-9.08c-0.47-3.01-0.27-5.92,0.62-8.75c0.88-2.82,2.4-5.51,4.56-8.07
		c2.16-2.55,4.91-4.92,8.26-7.09c3.04-1.98,6.44-3.62,9.55-4.5c7.59-2.16,12.6-2.3,19.7,1.33c-2.37,2-5.2,4.97-9.17,8.43
		c-1.01-0.15-0.58,0.27-1.42,0.27c-1.18,0-1.92,0.03-3.12,0.47c-1.2,0.44-2.28,0.93-3.69,1.64c-1.41,0.71-2.95,1.6-4.62,2.69
		c-1.02,0.66-1.99,1.42-2.91,2.28c-0.93,0.86-1.66,1.8-2.18,2.82c-0.53,1.02-0.76,2.17-0.69,3.44c0.07,1.28,0.58,2.66,1.55,4.15
		c0.78,1.19,1.64,2.06,2.58,2.59c0.94,0.54,1.96,0.85,3.04,0.95c1.09,0.1,2.2,0.06,3.35-0.14c1.15-0.19,2.29-0.4,3.41-0.63L35.97,58
		c2.85-0.58,5.51-0.99,7.98-1.24c2.47-0.25,4.8-0.09,7,0.48c2.2,0.57,4.3,1.62,6.32,3.15c2.02,1.53,3.98,3.76,5.88,6.69
		c1.98,3.04,3.23,6.18,3.76,9.4c0.53,3.23,0.33,6.41-0.6,9.56c-0.93,3.15-2.59,6.23-5.01,9.25c-2.41,3.01-5.62,5.82-9.62,8.43
		c-1.97,1.28-3.77,2.37-5.4,3.26c-1.63,0.89-3.23,1.66-4.81,2.3c-1.58,0.64-3.19,1.2-4.83,1.68c-1.65,0.48-3.41,0.9-5.29,1.27
		c-0.95-1.85-1.79-3.87-2.54-6.06c-0.75-2.19-1.41-4.45-2-6.79c3.17-0.62,6.02-1.39,8.56-2.32c2.54-0.93,5.06-2.21,7.57-3.84
		c3.76-2.45,6.26-5.07,7.5-7.87c1.24-2.8,0.92-5.63-0.94-8.5c-0.93-1.43-1.96-2.46-3.09-3.09c-1.13-0.62-2.31-1-3.54-1.14
		c-1.23-0.13-2.5-0.09-3.81,0.12c-1.31,0.21-2.63,0.46-3.98,0.74L28.29,74.98z"/>
</g>
<g>
	<path d="M239.87,40.59c1.47-0.44,6.54-0.67,7.54-0.67c1.2,0,5.74,0.07,7.59,0.7l-45.82,66.63c-2.74-0.89-5.41-1.96-8.01-3.21
		c-2.6-1.25-5.57-3.03-8.91-5.33c-2.57-1.77-4.78-3.81-6.65-6.13c-1.87-2.32-3.17-4.86-3.91-7.62c-0.74-2.76-0.8-5.71-0.17-8.84
		c0.63-3.14,2.14-6.45,4.54-9.93c1.9-2.76,4.14-5.05,6.72-6.88c2.58-1.83,5.32-3.06,8.23-3.7c2.9-0.64,5.9-0.67,8.99-0.07
		c3.09,0.59,6.09,1.89,8.99,3.89c0.87,0.6,1.75,1.26,2.65,1.98c0.89,0.72,1.69,1.51,2.4,2.35L239.87,40.59z M218.06,71.05
		c-0.8-0.91-0.94-1-1.49-1.49c-0.56-0.49-1.29-1.05-2.21-1.68c-1.6-1.1-3.22-1.73-4.85-1.9c-1.64-0.16-3.22,0.03-4.74,0.59
		c-1.53,0.56-2.98,1.45-4.36,2.67c-1.38,1.23-2.62,2.64-3.72,4.24c-1.37,1.99-2.28,3.83-2.75,5.55c-0.47,1.71-0.56,3.27-0.28,4.68
		c0.28,1.41,0.88,2.69,1.79,3.85c0.91,1.16,2.05,2.21,3.4,3.15c0.82,0.57,1.6,1.05,2.33,1.44c0.73,0.39,0.73,0.39,1.62,0.74
		L218.06,71.05z"/>
</g>
<text transform="matrix(0.9863 -0.1648 0.1648 0.9863 65.4726 79.3326)" class="st6 st7">t</text>
<text transform="matrix(0.9995 -0.032 0.032 0.9995 84.9667 74.3097)" class="st6 st7">e</text>
<text transform="matrix(0.9995 -0.032 0.032 0.9995 117.5127 74.309)" class="st6 st7">e</text>
<text transform="matrix(0.9838 0.1793 -0.1793 0.9838 146.3118 73.7654)" class="st6 st7">p</text>
<polygon points="70.02,111.75 70.02,105.3 75.29,108.53 "/>
<polygon points="173.26,105.3 173.26,111.75 169.39,110.68 "/>
<ellipse cx="121.64" cy="111.75" rx="51.62" ry="12.9"/>
<ellipse cx="121.64" cy="105.3" rx="51.62" ry="12.9"/>
<path class="st8" d="M166.8,111.75c-2.51,3.44-20.22,7.54-45.17,7.54s-42.38-4.2-45.17-7.54c0,0,8.5-6.45,45.17-6.45
	C156.19,105.3,166.8,111.75,166.8,111.75z"/>
<path d="M112.57,9c0-4.97,4.03-9,9-9s9,4.03,9,9"/>
</svg>
